<?xml version="1.0" encoding="UTF-8" standalone="no"?>
<!DOCTYPE svg PUBLIC "-//W3C//DTD SVG 1.1//EN"
 "http://www.w3.org/Graphics/SVG/1.1/DTD/svg11.dtd">
<!-- Generated by graphviz version 2.40.1 (20161225.0304)
 -->
<!-- Title: G Pages: 1 -->
<svg width="154pt" height="188pt"
 viewBox="0.00 0.00 154.50 188.00" xmlns="http://www.w3.org/2000/svg" xmlns:xlink="http://www.w3.org/1999/xlink">
<g id="graph0" class="graph" transform="scale(1 1) rotate(0) translate(4 184)">
<title>G</title>
<polygon fill="#ffffff" stroke="transparent" points="-4,4 -4,-184 150.495,-184 150.495,4 -4,4"/>
<!-- Func(MyName) -->
<g id="node1" class="node">
<title>Func(MyName)</title>
<ellipse fill="none" stroke="#000000" cx="73.2475" cy="-162" rx="73.4959" ry="18"/>
<text text-anchor="middle" x="73.2475" y="-157.8" font-family="Times,serif" font-size="14.00" fill="#000000">Func(MyName)</text>
</g>
<!-- SSA_VAL -->
<g id="node2" class="node">
<title>SSA_VAL</title>
<ellipse fill="none" stroke="#000000" cx="73.2475" cy="-90" rx="53.3302" ry="18"/>
<text text-anchor="middle" x="73.2475" y="-85.8" font-family="Times,serif" font-size="14.00" fill="#000000">SSA_VAL</text>
</g>
<!-- Func(MyName)&#45;&gt;SSA_VAL -->
<g id="edge1" class="edge">
<title>Func(MyName)&#45;&gt;SSA_VAL</title>
<path fill="none" stroke="#000000" d="M73.2475,-143.8314C73.2475,-136.131 73.2475,-126.9743 73.2475,-118.4166"/>
<polygon fill="#000000" stroke="#000000" points="76.7476,-118.4132 73.2475,-108.4133 69.7476,-118.4133 76.7476,-118.4132"/>
</g>
<!-- Prop(MyName) -->
<g id="node3" class="node">
<title>Prop(MyName)</title>
<ellipse fill="none" stroke="#000000" cx="73.2475" cy="-18" rx="72.3516" ry="18"/>
<text text-anchor="middle" x="73.2475" y="-13.8" font-family="Times,serif" font-size="14.00" fill="#000000">Prop(MyName)</text>
</g>
<!-- SSA_VAL&#45;&gt;Prop(MyName) -->
<g id="edge2" class="edge">
<title>SSA_VAL&#45;&gt;Prop(MyName)</title>
<path fill="none" stroke="#000000" d="M73.2475,-71.8314C73.2475,-64.131 73.2475,-54.9743 73.2475,-46.4166"/>
<polygon fill="#000000" stroke="#000000" points="76.7476,-46.4132 73.2475,-36.4133 69.7476,-46.4133 76.7476,-46.4132"/>
</g>
</g>
</svg>
